<svg version="1.1" xmlns="http://www.w3.org/2000/svg" viewBox="0 0 10020 640.614501953125" width="10020" height="640.614501953125">
  <!-- svg-source:excalidraw -->
  
  <defs>
    <style>
      @font-face {
        font-family: "Virgil";
        src: url("https://excalidraw.com/Virgil.woff2");
      }
      @font-face {
        font-family: "Cascadia";
        src: url("https://excalidraw.com/Cascadia.woff2");
      }
    </style>
  </defs>
  <rect x="0" y="0" width="10020" height="640.614501953125" fill="#fff0"></rect><g stroke-linecap="round" transform="translate(10 10) rotate(0 5000 0.5)"><path d="M-0.52 -0.26 C3022.65 -30.2, 6044.59 -29.2, 9999.32 0.22 M0.38 -0.31 C3948.03 -0.44, 7895.41 0.2, 9999.95 0.08 M10000.08 -0.06 C10000.09 0.27, 10000.05 0.48, 10000.09 0.92 M9999.97 0.01 C9999.95 0.33, 9999.98 0.72, 10000 0.99 M10000.22 1.51 C7095.77 35.76, 4193.15 34.95, -0.25 0.75 M10000.01 1.13 C7827.97 2.74, 5656.23 3.35, -0.33 0.84 M-0.04 1.01 C0 0.63, -0.06 0.15, 0.05 -0.03 M-0.04 0.95 C-0.04 0.73, -0.03 0.59, -0.05 -0.02" stroke="transparent" stroke-width="1" fill="none"></path></g><g stroke-linecap="round"><g transform="translate(604.6275939941406 566.3683471679688) rotate(0 67.68770037386567 0.24799577574245646)"><path d="M-0.65 0.78 C21.98 1.05, 112.57 0.64, 135.34 0.61 M1.2 0.14 C23.72 0.71, 111.99 1.91, 134.38 2.21" stroke="#1864ab" stroke-width="1" fill="none"></path></g><g transform="translate(604.6275939941406 566.3683471679688) rotate(0 67.68770037386567 0.24799577574245646)"><path d="M107.35 12.03 C113.7 10.66, 121.05 6.56, 133.5 2.26 M106.18 11.55 C114.06 9.17, 123.57 5.43, 134.87 2.26" stroke="#1864ab" stroke-width="1" fill="none"></path></g><g transform="translate(604.6275939941406 566.3683471679688) rotate(0 67.68770037386567 0.24799577574245646)"><path d="M107.63 -8.49 C113.74 -4.52, 121.02 -3.28, 133.5 2.26 M106.46 -8.96 C114.39 -5.08, 123.81 -2.55, 134.87 2.26" stroke="#1864ab" stroke-width="1" fill="none"></path></g></g><g transform="translate(811.6239624023438 563.0863037109375) rotate(0 -14.895477294921875 21.483123779296875)" stroke="none"><path fill="#1864ab" d="M 0,2.31 Q 0,2.31 -1.14,2.35 -2.29,2.40 -4.03,2.50 -5.76,2.59 -8.00,2.64 -10.23,2.68 -11.58,2.67 -12.94,2.66 -14.35,2.84 -15.75,3.01 -17.32,3.35 -18.89,3.70 -20.83,4.04 -22.77,4.37 -24.99,4.86 -27.20,5.35 -28.72,5.83 -30.24,6.30 -31.39,6.81 -32.54,7.32 -33.60,8.41 -34.66,9.49 -35.25,11.14 -35.83,12.78 -36.10,14.70 -36.37,16.62 -36.40,17.77 -36.44,18.91 -36.52,20.56 -36.61,22.21 -36.28,23.83 -35.96,25.44 -35.25,27.27 -34.54,29.09 -33.69,30.94 -32.84,32.78 -31.85,34.26 -30.86,35.75 -29.92,36.80 -28.98,37.86 -27.03,38.83 -25.08,39.79 -23.85,40.04 -22.61,40.30 -21.16,40.42 -19.72,40.54 -18.09,40.62 -16.46,40.69 -14.75,40.74 -13.05,40.78 -11.47,40.79 -9.89,40.79 -8.29,40.44 -6.69,40.10 -5.22,39.70 -3.75,39.30 -2.64,38.82 -1.54,38.35 -0.43,37.90 0.68,37.45 2.03,36.61 3.38,35.76 6.12,34.42 8.86,33.09 9.29,33.10 9.71,33.10 10.12,33.24 10.52,33.38 10.86,33.65 11.19,33.91 11.43,34.27 11.66,34.62 11.77,35.04 11.88,35.45 11.85,35.88 11.83,36.30 11.66,36.70 11.50,37.09 11.22,37.42 10.94,37.74 10.57,37.95 10.20,38.17 9.78,38.26 9.36,38.34 8.94,38.29 8.51,38.24 8.13,38.05 7.74,37.87 7.44,37.57 7.13,37.27 6.93,36.89 6.74,36.51 6.67,36.09 6.61,35.67 6.68,35.25 6.76,34.83 6.96,34.45 7.17,34.08 7.48,33.79 7.80,33.50 8.19,33.32 8.58,33.15 9.00,33.11 9.43,33.07 9.85,33.16 10.26,33.26 10.63,33.49 10.99,33.71 11.26,34.04 11.53,34.37 11.69,34.77 11.84,35.17 11.86,35.59 11.88,36.02 11.76,36.43 11.64,36.84 11.39,37.19 11.15,37.54 10.80,37.80 10.46,38.05 10.05,38.18 9.65,38.32 9.65,38.32 9.65,38.32 8.32,38.96 6.99,39.61 5.62,40.25 4.25,40.88 3.24,41.34 2.23,41.79 1.11,42.13 0.00,42.48 -1.34,42.93 -2.70,43.38 -4.23,43.75 -5.77,44.12 -7.83,44.61 -9.89,45.10 -11.50,45.08 -13.11,45.06 -14.86,45.06 -16.61,45.05 -18.37,45.00 -20.12,44.95 -21.88,44.79 -23.65,44.62 -25.21,44.19 -26.78,43.77 -28.28,43.04 -29.77,42.32 -30.88,41.33 -31.98,40.34 -32.94,39.08 -33.90,37.82 -35.04,36.16 -36.19,34.50 -37.23,32.64 -38.27,30.79 -39.36,28.68 -40.44,26.57 -41.06,24.38 -41.68,22.19 -41.72,20.45 -41.76,18.70 -41.70,17.40 -41.63,16.10 -41.46,14.73 -41.29,13.36 -40.95,12.18 -40.60,11.00 -40.10,9.75 -39.59,8.50 -38.90,7.39 -38.21,6.28 -37.28,5.41 -36.35,4.55 -35.24,3.93 -34.12,3.32 -32.77,2.85 -31.42,2.37 -29.85,1.92 -28.28,1.47 -26.01,0.72 -23.75,-0.03 -21.93,-0.53 -20.12,-1.02 -18.31,-1.55 -16.50,-2.08 -14.73,-2.37 -12.95,-2.66 -11.59,-2.67 -10.23,-2.68 -8.00,-2.64 -5.76,-2.59 -4.03,-2.50 -2.29,-2.40 -1.14,-2.35 0,-2.31 0.27,-2.27 0.55,-2.24 0.81,-2.14 1.07,-2.04 1.30,-1.88 1.53,-1.73 1.71,-1.52 1.90,-1.31 2.03,-1.06 2.16,-0.82 2.22,-0.54 2.29,-0.27 2.29,0.00 2.29,0.27 2.22,0.54 2.16,0.82 2.03,1.06 1.90,1.31 1.71,1.52 1.53,1.73 1.30,1.89 1.07,2.04 0.81,2.14 0.55,2.24 0.27,2.27 -0.00,2.31 -0.00,2.31 L 0,2.31 Z"></path></g><g transform="translate(847.5811157226562 566.5266723632812) rotate(0 -0.1497802734375 18.72955322265625)" stroke="none"><path fill="#1864ab" d="M 1.94,0.07 Q 1.94,0.07 1.77,2.31 1.59,4.54 1.50,7.55 1.40,10.55 1.34,14.13 1.28,17.71 1.24,20.60 1.20,23.49 1.17,26.04 1.14,28.60 1.13,30.70 1.12,32.79 1.18,35.17 1.25,37.55 1.21,37.80 1.17,38.05 1.05,38.27 0.93,38.49 0.75,38.66 0.57,38.84 0.34,38.94 0.11,39.05 -0.13,39.08 -0.38,39.10 -0.62,39.05 -0.87,38.99 -1.09,38.86 -1.30,38.74 -1.46,38.54 -1.63,38.35 -1.72,38.12 -1.81,37.88 -1.83,37.63 -1.84,37.38 -1.77,37.14 -1.70,36.90 -1.56,36.69 -1.42,36.48 -1.22,36.33 -1.02,36.18 -0.78,36.10 -0.55,36.02 -0.29,36.02 -0.04,36.02 0.19,36.10 0.42,36.18 0.62,36.33 0.82,36.48 0.97,36.69 1.11,36.90 1.17,37.14 1.24,37.38 1.23,37.63 1.21,37.89 1.12,38.12 1.03,38.35 0.86,38.54 0.70,38.74 0.49,38.87 0.27,39.00 0.02,39.05 -0.21,39.10 -0.46,39.08 -0.71,39.05 -0.94,38.94 -1.17,38.84 -1.35,38.66 -1.53,38.49 -1.65,38.27 -1.77,38.05 -1.81,37.80 -1.85,37.55 -1.85,37.55 -1.85,37.55 -1.78,35.17 -1.71,32.79 -1.72,30.69 -1.73,28.60 -1.75,26.04 -1.78,23.48 -1.80,20.59 -1.83,17.70 -1.86,14.11 -1.89,10.51 -1.91,7.46 -1.94,4.41 -1.94,2.16 -1.94,-0.07 -1.90,-0.30 -1.86,-0.53 -1.77,-0.75 -1.68,-0.96 -1.54,-1.15 -1.40,-1.34 -1.22,-1.49 -1.04,-1.63 -0.82,-1.74 -0.61,-1.84 -0.38,-1.88 -0.15,-1.93 0.07,-1.92 0.30,-1.91 0.53,-1.85 0.75,-1.78 0.96,-1.67 1.16,-1.55 1.33,-1.39 1.50,-1.23 1.62,-1.03 1.75,-0.83 1.82,-0.61 1.90,-0.39 1.92,-0.15 1.94,0.07 1.94,0.07 L 1.94,0.07 Z"></path></g><g transform="translate(866.1908569335938 568.5635375976562) rotate(0 -7.2081298828125 7.240203857421875)" stroke="none"><path fill="#1864ab" d="M 2.04,1.57 Q 2.04,1.57 1.24,2.62 0.44,3.67 -0.37,4.93 -1.18,6.20 -2.19,7.31 -3.19,8.43 -4.18,9.27 -5.17,10.12 -6.24,10.84 -7.32,11.56 -8.14,12.26 -8.96,12.96 -10.81,15.08 -12.67,17.21 -13.17,17.43 -13.67,17.65 -14.21,17.70 -14.76,17.75 -15.29,17.63 -15.82,17.50 -16.29,17.21 -16.75,16.93 -17.10,16.50 -17.45,16.08 -17.64,15.57 -17.84,15.06 -17.86,14.51 -17.88,13.97 -17.73,13.44 -17.58,12.92 -17.26,12.47 -16.95,12.02 -16.51,11.69 -16.07,11.37 -15.55,11.20 -15.03,11.03 -14.48,11.04 -13.93,11.05 -13.42,11.23 -12.90,11.41 -12.47,11.75 -12.04,12.09 -11.74,12.55 -11.44,13.00 -11.30,13.53 -11.16,14.06 -11.20,14.61 -11.23,15.15 -11.44,15.66 -11.65,16.16 -12.01,16.58 -12.37,16.99 -12.85,17.26 -13.32,17.54 -13.86,17.65 -14.39,17.76 -14.93,17.69 -15.48,17.63 -15.97,17.39 -16.46,17.15 -16.86,16.77 -17.25,16.39 -17.50,15.90 -17.75,15.41 -17.83,14.87 -17.91,14.33 -17.81,13.79 -17.72,13.25 -17.45,12.77 -17.19,12.29 -16.79,11.92 -16.38,11.55 -16.38,11.55 -16.38,11.55 -15.55,10.66 -14.72,9.77 -13.96,8.84 -13.21,7.91 -11.86,6.96 -10.52,6.00 -9.06,5.38 -7.61,4.77 -6.64,3.89 -5.67,3.02 -4.66,1.76 -3.66,0.50 -2.85,-0.53 -2.04,-1.57 -1.82,-1.80 -1.60,-2.02 -1.34,-2.18 -1.07,-2.34 -0.77,-2.44 -0.48,-2.53 -0.17,-2.55 0.13,-2.57 0.44,-2.52 0.75,-2.47 1.03,-2.34 1.32,-2.21 1.56,-2.02 1.81,-1.83 2.00,-1.59 2.20,-1.35 2.33,-1.06 2.46,-0.78 2.51,-0.47 2.57,-0.17 2.56,0.13 2.54,0.44 2.45,0.74 2.36,1.04 2.20,1.31 2.04,1.57 2.04,1.57 L 2.04,1.57 Z"></path></g><g transform="translate(877.5389404296875 576.9847412109375) rotate(0 8.72723388671875 18.434326171875)" stroke="none"><path fill="#1864ab" d="M -2.60,0 Q -2.60,0 -2.61,-1.24 -2.62,-2.48 -2.24,-4.42 -1.85,-6.36 -0.30,-7.04 1.25,-7.73 2.46,-7.80 3.67,-7.87 4.91,-7.92 6.15,-7.97 7.79,-7.76 9.43,-7.55 10.71,-6.92 11.99,-6.29 13.46,-5.03 14.94,-3.78 15.68,-2.65 16.43,-1.52 17.00,0.03 17.57,1.59 18.02,3.19 18.48,4.79 18.81,6.96 19.14,9.12 19.32,11.42 19.50,13.72 19.64,16.20 19.78,18.68 19.80,21.11 19.82,23.53 19.83,25.56 19.83,27.60 19.89,29.32 19.94,31.05 20.03,32.25 20.12,33.46 20.27,34.87 20.42,36.28 20.46,36.58 20.50,36.89 20.46,37.17 20.43,37.45 20.33,37.72 20.23,37.98 20.07,38.21 19.91,38.45 19.70,38.63 19.49,38.82 19.24,38.95 18.99,39.09 18.72,39.15 18.44,39.22 18.16,39.22 17.88,39.22 17.60,39.16 17.33,39.09 17.08,38.96 16.83,38.83 16.62,38.64 16.41,38.46 16.24,38.22 16.08,37.99 15.98,37.73 15.88,37.46 15.85,37.18 15.81,36.90 15.48,35.39 15.15,33.88 14.94,32.79 14.73,31.69 14.52,29.96 14.31,28.22 14.13,26.42 13.95,24.63 13.67,23.09 13.39,21.55 13.06,20.04 12.72,18.53 12.28,17.26 11.85,15.99 11.36,14.90 10.87,13.82 9.86,12.75 8.86,11.67 7.71,11.30 6.56,10.92 5.28,11.03 4.01,11.13 3.19,11.96 2.36,12.80 1.76,13.73 1.16,14.66 0.77,16.36 0.37,18.05 0.31,19.40 0.26,20.74 0.21,22.68 0.17,24.63 0.17,26.27 0.17,27.90 0.47,29.06 0.77,30.22 1.72,31.58 2.66,32.94 3.62,33.94 4.58,34.94 5.54,35.74 6.50,36.53 7.49,37.09 8.48,37.65 9.94,37.97 11.39,38.28 12.63,38.04 13.87,37.79 16.75,36.42 19.63,35.05 20.16,35.02 20.70,34.98 21.22,35.11 21.74,35.25 22.18,35.54 22.63,35.83 22.96,36.25 23.29,36.67 23.47,37.18 23.65,37.68 23.66,38.22 23.67,38.75 23.51,39.26 23.35,39.77 23.03,40.20 22.72,40.64 22.28,40.94 21.84,41.25 21.33,41.41 20.81,41.56 20.28,41.54 19.74,41.52 19.24,41.33 18.74,41.14 18.33,40.80 17.91,40.46 17.63,40.01 17.35,39.55 17.22,39.03 17.10,38.51 17.15,37.98 17.19,37.44 17.41,36.95 17.63,36.46 17.99,36.07 18.35,35.67 18.82,35.42 19.29,35.16 19.81,35.06 20.34,34.96 20.87,35.04 21.40,35.12 21.88,35.36 22.36,35.60 22.73,35.99 23.11,36.37 23.34,36.85 23.57,37.33 23.64,37.86 23.71,38.40 23.60,38.92 23.49,39.45 23.23,39.91 22.96,40.37 22.56,40.73 22.15,41.08 21.66,41.29 21.17,41.49 21.17,41.49 21.17,41.49 19.66,42.25 18.16,43.01 17.16,43.51 16.16,44.01 14.89,44.41 13.62,44.81 11.28,44.84 8.95,44.87 7.08,44.22 5.21,43.57 3.73,42.67 2.26,41.76 0.87,40.55 -0.51,39.34 -1.64,38.12 -2.77,36.90 -3.69,35.57 -4.61,34.24 -5.27,32.84 -5.93,31.44 -6.16,30.36 -6.39,29.28 -6.37,27.84 -6.36,26.41 -6.37,24.48 -6.38,22.56 -6.35,20.54 -6.32,18.52 -6.06,16.88 -5.80,15.25 -5.40,13.84 -5.01,12.42 -4.07,10.92 -3.13,9.42 -2.19,8.56 -1.26,7.71 -0.14,6.93 0.97,6.15 2.02,5.70 3.08,5.25 4.67,5.22 6.26,5.20 7.81,5.56 9.37,5.91 10.98,7.01 12.59,8.11 13.30,8.95 14.00,9.79 14.64,10.88 15.28,11.97 15.77,13.25 16.27,14.53 16.74,16.02 17.21,17.51 17.58,19.09 17.94,20.66 18.29,22.34 18.64,24.01 18.92,25.71 19.20,27.41 19.56,29.15 19.92,30.88 20.16,32.69 20.39,34.51 20.44,35.70 20.50,36.89 20.46,37.17 20.43,37.45 20.33,37.72 20.23,37.98 20.07,38.21 19.91,38.45 19.70,38.63 19.49,38.82 19.24,38.95 18.99,39.09 18.72,39.15 18.44,39.22 18.16,39.22 17.88,39.22 17.60,39.16 17.33,39.09 17.08,38.96 16.83,38.83 16.62,38.64 16.41,38.46 16.24,38.22 16.08,37.99 15.98,37.73 15.88,37.46 15.85,37.18 15.81,36.90 15.85,36.60 15.89,36.29 16.03,34.89 16.16,33.49 16.24,32.29 16.32,31.09 16.33,29.39 16.34,27.68 16.25,25.69 16.16,23.70 15.96,21.41 15.76,19.11 15.38,16.75 15.00,14.39 14.54,12.34 14.07,10.30 13.48,8.50 12.89,6.70 11.95,4.32 11.01,1.95 10.26,0.89 9.51,-0.17 8.43,-0.96 7.35,-1.74 6.14,-1.78 4.93,-1.82 3.77,-2.15 2.62,-2.48 2.61,-1.24 2.60,0 2.56,0.31 2.52,0.62 2.41,0.91 2.30,1.20 2.12,1.46 1.94,1.72 1.71,1.93 1.47,2.14 1.20,2.28 0.92,2.43 0.61,2.50 0.31,2.58 -0.00,2.58 -0.31,2.58 -0.61,2.50 -0.92,2.43 -1.20,2.28 -1.47,2.14 -1.71,1.93 -1.94,1.72 -2.12,1.46 -2.30,1.20 -2.41,0.91 -2.52,0.62 -2.56,0.31 -2.60,-0.00 -2.60,-0.00 L -2.60,0 Z"></path></g><g transform="translate(908.9474487304688 584.79833984375) rotate(0 18.055572509765625 12.464996337890625)" stroke="none"><path fill="#1864ab" d="M -0.48,-2.63 Q -0.48,-2.63 0.34,-2.82 1.18,-3.01 2.67,-3.19 4.17,-3.37 5.43,-3.44 6.70,-3.51 8.09,-3.93 9.48,-4.35 11.20,-4.65 12.93,-4.95 14.33,-5.28 15.72,-5.62 17.03,-6.21 18.35,-6.80 18.55,-6.83 18.75,-6.87 19.16,-6.90 19.58,-6.94 19.99,-6.87 20.40,-6.81 20.78,-6.65 21.17,-6.49 21.50,-6.24 21.84,-5.99 22.10,-5.67 22.37,-5.35 22.55,-4.97 22.73,-4.60 22.82,-4.19 22.90,-3.78 22.89,-3.37 22.87,-2.95 22.76,-2.55 22.65,-2.15 22.44,-1.79 22.23,-1.42 21.95,-1.12 21.66,-0.82 21.31,-0.59 20.96,-0.37 20.56,-0.24 20.17,-0.10 19.12,1.54 18.08,3.18 16.87,4.52 15.66,5.86 14.38,7.30 13.10,8.75 11.80,10.25 10.51,11.76 9.40,13.24 8.29,14.71 7.44,16.06 6.59,17.41 5.98,18.49 5.38,19.57 4.86,20.52 4.34,21.47 3.69,23.09 3.04,24.70 2.73,25.77 2.42,26.85 3.55,25.94 4.68,25.03 6.40,24.54 8.12,24.05 9.16,23.69 10.20,23.33 11.24,22.98 12.27,22.63 13.49,22.28 14.70,21.92 15.94,21.58 17.18,21.24 18.38,20.97 19.58,20.70 20.84,20.48 22.11,20.27 24.10,19.88 26.09,19.49 27.67,19.13 29.24,18.77 30.71,18.41 32.17,18.04 35.64,18.51 39.12,18.98 39.32,19.45 39.52,19.91 39.56,20.41 39.60,20.92 39.48,21.41 39.36,21.90 39.09,22.32 38.82,22.75 38.43,23.07 38.04,23.38 37.56,23.56 37.09,23.73 36.59,23.75 36.08,23.76 35.60,23.62 35.12,23.47 34.70,23.18 34.29,22.88 34.00,22.48 33.70,22.07 33.55,21.58 33.40,21.10 33.42,20.60 33.43,20.09 33.60,19.62 33.77,19.14 34.09,18.75 34.40,18.36 34.83,18.08 35.25,17.81 35.74,17.69 36.23,17.56 36.74,17.60 37.24,17.64 37.70,17.84 38.17,18.04 38.54,18.37 38.92,18.71 39.17,19.15 39.42,19.59 39.52,20.08 39.61,20.58 39.55,21.08 39.48,21.58 39.26,22.03 39.03,22.49 38.68,22.84 38.32,23.20 37.87,23.43 37.42,23.65 36.92,23.72 36.42,23.79 35.92,23.70 35.43,23.60 34.99,23.36 34.55,23.11 34.21,22.73 33.87,22.36 33.87,22.36 33.87,22.36 33.73,23.23 33.59,24.10 32.08,24.40 30.57,24.71 28.86,25.03 27.14,25.35 25.15,25.71 23.15,26.07 21.01,26.52 18.87,26.97 17.68,27.35 16.49,27.73 15.38,28.09 14.28,28.45 12.30,29.16 10.33,29.86 8.23,30.48 6.13,31.10 4.98,31.31 3.83,31.53 2.39,31.46 0.95,31.39 -0.60,30.60 -2.17,29.81 -2.64,28.13 -3.11,26.45 -2.70,25.19 -2.29,23.92 -1.55,22.39 -0.81,20.85 -0.28,19.91 0.23,18.98 0.84,18.07 1.45,17.17 2.15,16.12 2.84,15.07 3.73,13.63 4.62,12.20 5.66,10.54 6.70,8.88 7.79,7.22 8.88,5.55 9.94,3.91 11.00,2.27 12.02,0.72 13.03,-0.83 14.54,-2.78 16.05,-4.73 17.40,-5.80 18.75,-6.87 19.16,-6.90 19.58,-6.94 19.99,-6.87 20.40,-6.81 20.78,-6.65 21.17,-6.49 21.50,-6.24 21.84,-5.99 22.10,-5.67 22.37,-5.35 22.55,-4.97 22.73,-4.60 22.82,-4.19 22.90,-3.78 22.89,-3.37 22.87,-2.95 22.76,-2.55 22.65,-2.15 22.44,-1.79 22.23,-1.42 21.95,-1.12 21.66,-0.82 21.31,-0.60 20.96,-0.37 20.56,-0.24 20.17,-0.10 20.08,-0.17 19.98,-0.24 18.93,0.21 17.87,0.66 16.55,0.95 15.22,1.24 14.03,1.35 12.83,1.47 11.13,1.73 9.44,1.99 8.13,2.21 6.82,2.44 5.60,2.41 4.38,2.37 3.28,2.38 2.18,2.38 1.33,2.51 0.48,2.63 0.16,2.65 -0.15,2.67 -0.47,2.61 -0.79,2.55 -1.08,2.42 -1.37,2.29 -1.63,2.09 -1.88,1.89 -2.08,1.64 -2.28,1.39 -2.42,1.09 -2.55,0.80 -2.61,0.48 -2.67,0.16 -2.65,-0.15 -2.63,-0.47 -2.53,-0.78 -2.44,-1.09 -2.27,-1.36 -2.11,-1.64 -1.88,-1.87 -1.65,-2.10 -1.38,-2.27 -1.10,-2.43 -0.79,-2.53 -0.48,-2.63 -0.48,-2.63 L -0.48,-2.63 Z"></path></g><g transform="translate(958.7088623046875 576.4584350585938) rotate(0 2.625244140625 8.260772705078125)" stroke="none"><path fill="#1864ab" d="M 2.64,0 Q 2.64,0 2.63,1.37 2.63,2.75 2.64,3.94 2.66,5.13 2.68,6.22 2.70,7.32 3.14,8.54 3.58,9.76 4.22,10.61 4.87,11.46 6.10,13.06 7.34,14.65 7.58,15.07 7.82,15.48 7.92,15.95 8.02,16.43 7.96,16.90 7.90,17.38 7.70,17.82 7.49,18.25 7.15,18.59 6.82,18.94 6.39,19.16 5.96,19.38 5.49,19.45 5.01,19.52 4.54,19.44 4.06,19.36 3.64,19.13 3.22,18.90 2.89,18.54 2.56,18.19 2.37,17.75 2.17,17.31 2.13,16.83 2.08,16.35 2.19,15.88 2.30,15.42 2.55,15.01 2.80,14.60 3.17,14.29 3.54,13.98 3.99,13.81 4.44,13.64 4.92,13.62 5.40,13.60 5.87,13.73 6.33,13.87 6.72,14.14 7.12,14.42 7.40,14.80 7.69,15.19 7.84,15.65 7.99,16.11 7.98,16.59 7.98,17.07 7.82,17.52 7.66,17.98 7.36,18.36 7.07,18.73 6.66,19.00 6.26,19.27 5.80,19.39 5.33,19.51 4.85,19.48 4.37,19.45 3.93,19.26 3.48,19.08 3.12,18.76 2.76,18.45 2.76,18.45 2.76,18.45 0.94,15.95 -0.87,13.46 -1.61,11.51 -2.35,9.57 -2.52,8.46 -2.70,7.34 -2.68,6.24 -2.66,5.13 -2.64,3.94 -2.63,2.75 -2.63,1.37 -2.64,0 -2.60,-0.31 -2.56,-0.63 -2.45,-0.93 -2.34,-1.22 -2.16,-1.49 -1.98,-1.75 -1.74,-1.96 -1.50,-2.17 -1.22,-2.32 -0.93,-2.47 -0.62,-2.55 -0.31,-2.62 0.00,-2.62 0.31,-2.62 0.62,-2.55 0.93,-2.47 1.22,-2.32 1.50,-2.17 1.74,-1.96 1.98,-1.75 2.16,-1.49 2.34,-1.22 2.45,-0.93 2.56,-0.63 2.60,-0.31 2.64,0.00 2.64,0.00 L 2.64,0 Z"></path></g><g transform="translate(979.453857421875 573.2876586914062) rotate(0 -7.06475830078125 28.663421630859375)" stroke="none"><path fill="#1864ab" d="M 2.13,0 Q 2.13,0 2.19,1.21 2.24,2.42 1.98,4.26 1.71,6.09 1.52,7.54 1.34,8.99 1.16,10.46 0.98,11.92 0.67,13.49 0.36,15.07 0.01,16.61 -0.33,18.15 -0.72,19.80 -1.12,21.44 -1.67,23.21 -2.23,24.98 -2.86,26.86 -3.49,28.73 -4.15,30.68 -4.82,32.62 -5.44,34.47 -6.06,36.33 -6.50,37.95 -6.94,39.57 -7.31,41.12 -7.69,42.67 -8.00,43.94 -8.31,45.22 -8.61,46.37 -8.91,47.52 -9.21,48.61 -9.51,49.70 -9.96,51.69 -10.41,53.67 -11.02,55.74 -11.63,57.81 -11.80,58.18 -11.96,58.56 -12.24,58.86 -12.52,59.16 -12.88,59.36 -13.24,59.55 -13.64,59.63 -14.05,59.70 -14.45,59.64 -14.86,59.58 -15.23,59.39 -15.59,59.20 -15.88,58.91 -16.16,58.61 -16.34,58.24 -16.52,57.87 -16.57,57.46 -16.62,57.06 -16.53,56.66 -16.45,56.25 -16.24,55.90 -16.04,55.54 -15.73,55.27 -15.42,55.00 -15.04,54.85 -14.66,54.69 -14.25,54.66 -13.84,54.64 -13.44,54.74 -13.05,54.84 -12.70,55.07 -12.36,55.30 -12.11,55.62 -11.86,55.94 -11.72,56.33 -11.58,56.72 -11.58,57.13 -11.57,57.54 -11.70,57.93 -11.83,58.32 -12.07,58.65 -12.31,58.98 -12.65,59.21 -12.99,59.45 -13.38,59.56 -13.77,59.68 -14.19,59.66 -14.60,59.65 -14.98,59.50 -15.36,59.35 -15.68,59.09 -15.99,58.83 -16.21,58.48 -16.43,58.13 -16.52,57.73 -16.61,57.33 -16.57,56.92 -16.54,56.51 -16.54,56.51 -16.54,56.51 -15.54,53.51 -14.55,50.51 -14.22,49.38 -13.90,48.26 -13.50,47.22 -13.10,46.19 -12.69,45.11 -12.28,44.04 -11.85,42.85 -11.43,41.67 -10.98,40.11 -10.52,38.55 -10.02,36.88 -9.52,35.22 -8.96,33.38 -8.40,31.54 -7.88,29.56 -7.36,27.58 -6.87,25.68 -6.38,23.77 -5.93,22.12 -5.48,20.46 -5.14,18.80 -4.79,17.14 -4.45,15.65 -4.11,14.17 -3.82,12.74 -3.53,11.31 -3.32,9.83 -3.10,8.35 -2.87,6.92 -2.65,5.49 -2.44,3.95 -2.24,2.42 -2.19,1.21 -2.13,0 -2.10,-0.25 -2.07,-0.51 -1.98,-0.75 -1.89,-0.99 -1.74,-1.20 -1.60,-1.41 -1.40,-1.58 -1.21,-1.76 -0.98,-1.88 -0.75,-2.00 -0.50,-2.06 -0.25,-2.12 0.00,-2.12 0.25,-2.12 0.50,-2.06 0.75,-2.00 0.98,-1.88 1.21,-1.76 1.40,-1.58 1.60,-1.41 1.74,-1.20 1.89,-0.99 1.98,-0.75 2.07,-0.51 2.10,-0.25 2.13,0.00 2.13,0.00 L 2.13,0 Z"></path></g></svg>